<svg width="271" height="182" viewBox="0 0 271 182" fill="none" xmlns="http://www.w3.org/2000/svg">
<path d="M15.1562 91.1269C15.1562 91.1267 15.1562 91.1265 0.156258 91.1524L15.1562 91.1265L15.0505 29.7304C15.0427 25.2541 15.0758 24.512 15.1315 24.096C15.7281 19.6386 19.2268 16.1278 23.6822 15.5157C24.098 15.4586 24.84 15.4231 29.3163 15.4153C33.7926 15.4076 34.5347 15.4407 34.9507 15.4963C39.4081 16.093 42.9189 19.5917 43.5309 24.0471C43.5881 24.4632 43.6236 25.202 43.6313 29.6686L43.6316 29.8534L43.632 30.0387L43.6323 30.2242L43.6326 30.4101L43.6329 30.5964L43.6332 30.783L43.6336 30.9699L43.6339 31.1572L43.6342 31.3448L43.6345 31.5327L43.6349 31.721L43.6352 31.9096L43.6355 32.0985L43.6358 32.2878L43.6362 32.4773L43.6365 32.6672L43.6368 32.8574L43.6371 33.0479L43.6375 33.2387L43.6378 33.4299L43.6381 33.6213L43.6385 33.8131L43.6388 34.0051L43.6391 34.1974L43.6395 34.3901L43.6398 34.583L43.6401 34.7762L43.6405 34.9697L43.6408 35.1636L43.6411 35.3576L43.6415 35.552L43.6418 35.7466L43.6421 35.9416L43.6425 36.1368L43.6428 36.3323L43.6431 36.528L43.6435 36.724L43.6438 36.9203L43.6441 37.1168L43.6445 37.3136L43.6448 37.5107L43.6452 37.708L43.6455 37.9056L43.6458 38.1034L43.6462 38.3015L43.6465 38.4998L43.6469 38.6984L43.6472 38.8972L43.6476 39.0963L43.6479 39.2956L43.6482 39.4951L43.6486 39.6949L43.6489 39.8949L43.6493 40.0951L43.6496 40.2955L43.65 40.4962L43.6503 40.6971L43.6507 40.8982L43.651 41.0995L43.6514 41.3011L43.6517 41.5028L43.6521 41.7048L43.6524 41.9069L43.6528 42.1093L43.6531 42.3119L43.6534 42.5147L43.6538 42.7176L43.6541 42.9208L43.6545 43.1242L43.6549 43.3277L43.6552 43.5315L43.6556 43.7354L43.6559 43.9395L43.6563 44.1438L43.6566 44.3483L43.657 44.5529L43.6573 44.7578L43.6577 44.9628L43.658 45.1679L43.6584 45.3733L43.6587 45.5788L43.6591 45.7844L43.6594 45.9902L43.6598 46.1962L43.6601 46.4023L43.6605 46.6086L43.6609 46.8151L43.6612 47.0217L43.6616 47.2284L43.6619 47.4353L43.6623 47.6423L43.6626 47.8495L43.663 48.0568L43.6634 48.2642L43.6637 48.4717L43.6641 48.6794L43.6644 48.8873L43.6648 49.0952L43.6651 49.3033L43.6655 49.5114L43.6659 49.7197L43.6662 49.9282L43.6666 50.1367L43.6669 50.3453L43.6673 50.5541L43.6677 50.763L43.668 50.9719L43.6684 51.181L43.6687 51.3901L43.6691 51.5994L43.6695 51.8087L43.6698 52.0182L43.6702 52.2277L43.6705 52.4374L43.6709 52.6471L43.6713 52.8569L43.6716 53.0667L43.672 53.2767L43.6724 53.4867L43.6727 53.6968L43.6731 53.907L43.6734 54.1172L43.6738 54.3275L43.6742 54.5379L43.6745 54.7483L43.6749 54.9588L43.6753 55.1693L43.6756 55.3799L43.676 55.5906L43.6763 55.8013L43.6767 56.012L43.6771 56.2228L43.6774 56.4336L43.6778 56.6445L43.6782 56.8554L43.6785 57.0664L43.6789 57.2773L43.6792 57.4884L43.6796 57.6994L43.68 57.9105L43.6803 58.1215L43.6807 58.3327L43.6811 58.5438L43.6814 58.7549L43.6818 58.9661L43.6822 59.1773L43.6825 59.3885L43.6829 59.5996L43.6832 59.8108L43.6836 60.022L43.684 60.2332L43.6843 60.4444L43.6847 60.6556L43.6851 60.8668L43.6854 61.078L43.6858 61.2891L43.6862 61.5003L43.6865 61.7114L43.6869 61.9225L43.6873 62.1336L43.6876 62.3447L43.688 62.5557L43.6883 62.7668L43.6887 62.9777L43.6891 63.1887L43.6894 63.3996L43.6898 63.6105L43.6902 63.8213L43.6905 64.0321L43.6909 64.2429L43.6912 64.4536L43.6916 64.6643L43.692 64.8749L43.6923 65.0854L43.6927 65.2959L43.6931 65.5064L43.6934 65.7167L43.6938 65.927L43.6941 66.1373L43.6945 66.3475L43.6949 66.5576L43.6952 66.7676L43.6956 66.9776L43.696 67.1875L43.6963 67.3973L43.6967 67.607L43.697 67.8166L43.6974 68.0262L43.6978 68.2357L43.6981 68.445L43.6985 68.6543L43.6988 68.8635L43.6992 69.0726L43.6996 69.2815L43.6999 69.4904L43.7003 69.6992L43.7006 69.9079L43.701 70.1164L43.7014 70.3248L43.7017 70.5332L43.7021 70.7414L43.7024 70.9495L43.7028 71.1574L43.7032 71.3653L43.7035 71.573L43.7039 71.7806L43.7042 71.988L43.7046 72.1953L43.7049 72.4025L43.7053 72.6096L43.7057 72.8165L43.706 73.0232L43.7064 73.2299L43.7067 73.4363L43.7071 73.6426L43.7074 73.8488L43.7078 74.0548L43.7081 74.2607L43.7085 74.4664L43.7089 74.6719L43.7092 74.8773L43.7096 75.0825L43.7099 75.2875L43.7103 75.4923L43.7106 75.697L43.711 75.9015L43.7113 76.1059L43.7117 76.31L43.712 76.514L43.7124 76.7177L43.7127 76.9213L43.7131 77.1247L43.7134 77.3279L43.7138 77.531L43.7141 77.7338L43.7145 77.9364L43.7148 78.1388L43.7152 78.341L43.7155 78.543L43.7159 78.7448L43.7162 78.9464L43.7166 79.1478L43.7169 79.3489L43.7173 79.5498L43.7176 79.7505L43.7179 79.951L43.7183 80.1513L43.7186 80.3513L43.719 80.5511L43.7193 80.7507L43.7197 80.95L43.72 81.1491L43.7204 81.348L43.7207 81.5466L43.721 81.745L43.7214 81.9431L43.7217 82.141L43.7221 82.3386L43.7224 82.536L43.7227 82.7331L43.7231 82.9299L43.7234 83.1265L43.7238 83.3229L43.7241 83.5189L43.7244 83.7147L43.7248 83.9103L43.7251 84.1055L43.7254 84.3005L43.7258 84.4952L43.7261 84.6896L43.7264 84.8837L43.7268 85.0776L43.7271 85.2712L43.7274 85.4644L43.7278 85.6574L43.7281 85.8501L43.7284 86.0425L43.7288 86.2346L43.7291 86.4264L43.7294 86.6179L43.7298 86.8091L43.7301 87L43.7304 87.1905L43.7308 87.3808L43.7311 87.5707L43.7314 87.7604L43.7317 87.9497L43.7321 88.1387L43.7324 88.3273L43.7327 88.5156L43.733 88.7036L43.7334 88.8913L43.7337 89.0786L43.734 89.2656L43.7343 89.4523L43.7346 89.6386L43.735 89.8246L43.7353 90.0102L43.7356 90.1955L43.7359 90.3804L43.7362 90.565L43.7366 90.7492L43.7369 90.9331L43.7372 91.1166L43.7375 91.2998L43.7378 91.4825L43.7381 91.665L43.7384 91.847L43.7388 92.0287L43.7391 92.21L43.7394 92.3909L43.7397 92.5714L43.74 92.7516L43.7403 92.9314L43.7406 93.1108L43.7409 93.2898L43.7412 93.4684L43.7415 93.6466L43.7419 93.8244L43.7422 94.0019L43.7425 94.1789L43.7428 94.3555L43.7431 94.5318L43.7434 94.7076L43.7437 94.883L43.744 95.058L43.7443 95.2326L43.7446 95.4067L43.7449 95.5805L43.7452 95.7538L43.7455 95.9267L43.7458 96.0992L43.7461 96.2712L43.7464 96.4428L43.7467 96.614L43.747 96.7848L43.7472 96.9551L43.7475 97.1249L43.7478 97.2944L43.7481 97.4634L43.7484 97.6319L43.7487 97.8L43.749 97.9676L43.7493 98.1348L43.7496 98.3015L43.7499 98.4678L43.7501 98.6336L43.7504 98.799L43.7507 98.9638L43.751 99.1282L43.7513 99.2922L43.7516 99.4557L43.7518 99.6186L43.7521 99.7812L43.7524 99.9432L43.7527 100.105L43.753 100.266L43.7532 100.426L43.7535 100.586L43.7538 100.746L43.7541 100.905L43.7543 101.064L43.7546 101.222L43.7549 101.38L43.7551 101.537L43.7554 101.693L43.7557 101.849L43.7559 102.005L43.7562 102.16L43.7565 102.315L43.7567 102.469L43.757 102.622L43.7573 102.775L43.7575 102.928L43.7578 103.079L43.7581 103.231L43.7583 103.382L43.7586 103.532L43.7588 103.682L43.7591 103.831L43.7593 103.98L43.7596 104.128L43.7599 104.276L43.7601 104.423L43.7604 104.569L43.7606 104.715L43.7609 104.861L43.7611 105.006L43.7614 105.15L43.7616 105.294L43.7619 105.437L43.7621 105.58L43.7624 105.722L43.7626 105.863L43.7628 106.004L43.7631 106.144L43.7633 106.284L43.7636 106.423L43.7638 106.562L43.764 106.7L43.7643 106.837L43.7645 106.974L43.7647 107.11L43.765 107.246L43.7652 107.381L43.7654 107.516L43.7657 107.649L43.7659 107.783L43.7661 107.915L43.7664 108.047L43.7666 108.179L43.7668 108.309L43.767 108.44L43.7673 108.569L43.7675 108.698L43.7677 108.826L43.7679 108.954L43.7681 109.081L43.7684 109.208L43.7686 109.333L43.7688 109.459L43.769 109.583L43.7692 109.707L43.7694 109.83L43.7696 109.953L43.7698 110.075L43.7701 110.196L43.7703 110.317L43.7705 110.437L43.7707 110.556L43.7709 110.675L43.7711 110.793L43.7713 110.91L43.7715 111.027L43.7717 111.143L43.7719 111.258L43.7721 111.373L43.7723 111.487L43.7725 111.6L43.7727 111.713L43.7729 111.825L43.7731 111.936L43.7732 112.047L43.7734 112.157L43.7736 112.266L43.7738 112.374L43.774 112.482L43.7742 112.589L43.7744 112.696L43.7745 112.801L43.7747 112.906L43.7749 113.011L43.7751 113.114L43.7753 113.217L43.7754 113.319L43.7756 113.421L43.7758 113.521L43.776 113.622L43.7761 113.721L43.7763 113.819L43.7765 113.917L43.7766 114.014L43.7768 114.111L43.777 114.206L43.7771 114.301L43.7773 114.395L43.7775 114.489L43.7776 114.581L43.7778 114.673L43.7779 114.764L43.7781 114.855L43.7782 114.944L43.7784 115.033L43.7785 115.121L43.7787 115.209L43.7788 115.295L43.779 115.381L43.7791 115.466L43.7793 115.551L43.7794 115.634L43.7796 115.717L43.7797 115.799L43.7799 115.88L43.78 115.96L43.7801 116.04L43.7803 116.119L43.7804 116.197L43.7805 116.274L43.7807 116.351L43.7808 116.426L43.7809 116.501L43.781 116.575L43.7812 116.648L43.7813 116.721L43.7814 116.792L43.7815 116.863L43.7817 116.933L43.7818 117.002L43.7819 117.071L43.782 117.138L43.7821 117.205L43.7822 117.271L43.7824 117.336L43.7825 117.4L43.7826 117.464L43.7827 117.526L43.7828 117.588L43.7829 117.649L43.783 117.709L43.7831 117.768L43.7832 117.827L43.7833 117.884C43.8209 139.716 52.7716 155.451 65.0539 166.727L41.9226 166.767C33.8731 166.781 28.8371 166.775 25.058 166.44C21.4846 166.123 20.5295 165.605 20.2927 165.47C18.7645 164.593 17.4951 163.328 16.6129 161.802C16.4763 161.566 15.9554 160.613 15.626 157.041C15.2776 153.263 15.2546 148.227 15.2407 140.177L15.1871 109.021L15.1652 96.3043L15.1586 92.509L15.1569 91.4831L15.1564 91.2171L15.1563 91.1493L15.1562 91.1323L15.1562 91.128L15.1562 91.1269Z" fill="#D115A8" stroke="#D115A8" stroke-width="30"/>
<path d="M137.302 116.727C137.302 116.727 137.302 116.727 122.302 116.753L137.302 116.727L137.238 79.5144C137.233 76.7373 137.245 76.2748 137.267 76.0154C137.666 71.1516 141.518 67.2866 146.38 66.8704C146.639 66.8482 147.102 66.8341 149.879 66.8293C152.656 66.8246 153.119 66.837 153.378 66.8583C158.242 67.2578 162.107 71.1095 162.523 75.9719C162.545 76.2314 162.559 76.6924 162.564 79.4652L162.564 79.5942L162.564 79.7233L162.565 79.8525L162.565 79.9818L162.565 80.1113L162.565 80.241L162.566 80.3707L162.566 80.5006L162.566 80.6306L162.566 80.7608L162.566 80.891L162.567 81.0214L162.567 81.152L162.567 81.2826L162.567 81.4134L162.568 81.5443L162.568 81.6753L162.568 81.8064L162.568 81.9377L162.568 82.069L162.569 82.2005L162.569 82.3321L162.569 82.4638L162.569 82.5956L162.57 82.7275L162.57 82.8595L162.57 82.9917L162.57 83.1239L162.571 83.2563L162.571 83.3887L162.571 83.5213L162.571 83.6539L162.571 83.7867L162.572 83.9196L162.572 84.0525L162.572 84.1855L162.572 84.3187L162.573 84.4519L162.573 84.5853L162.573 84.7187L162.573 84.8522L162.573 84.9858L162.574 85.1195L162.574 85.2532L162.574 85.3871L162.574 85.521L162.575 85.655L162.575 85.7891L162.575 85.9233L162.575 86.0576L162.576 86.1919L162.576 86.3263L162.576 86.4608L162.576 86.5954L162.576 86.73L162.577 86.8647L162.577 86.9995L162.577 87.1343L162.577 87.2693L162.578 87.4042L162.578 87.5393L162.578 87.6744L162.578 87.8095L162.579 87.9448L162.579 88.0801L162.579 88.2154L162.579 88.3508L162.58 88.4863L162.58 88.6218L162.58 88.7574L162.58 88.893L162.58 89.0287L162.581 89.1644L162.581 89.3001L162.581 89.436L162.581 89.5718L162.582 89.7077L162.582 89.8437L162.582 89.9797L162.582 90.1157L162.583 90.2518L162.583 90.3879L162.583 90.5241L162.583 90.6602L162.584 90.7965L162.584 90.9327L162.584 91.069L162.584 91.2053L162.584 91.3417L162.585 91.4781L162.585 91.6145L162.585 91.7509L162.585 91.8874L162.586 92.0238L162.586 92.1603L162.586 92.2969L162.586 92.4334L162.587 92.57L162.587 92.7065L162.587 92.8431L162.587 92.9798L162.588 93.1164L162.588 93.253L162.588 93.3897L162.588 93.5263L162.588 93.663L162.589 93.7997L162.589 93.9364L162.589 94.073L162.589 94.2097L162.59 94.3464L162.59 94.4831L162.59 94.6198L162.59 94.7565L162.591 94.8932L162.591 95.0299L162.591 95.1666L162.591 95.3032L162.592 95.4399L162.592 95.5766L162.592 95.7132L162.592 95.8498L162.592 95.9865L162.593 96.1231L162.593 96.2597L162.593 96.3963L162.593 96.5328L162.594 96.6694L162.594 96.8059L162.594 96.9424L162.594 97.0789L162.595 97.2153L162.595 97.3518L162.595 97.4882L162.595 97.6245L162.596 97.7609L162.596 97.8972L162.596 98.0335L162.596 98.1698L162.596 98.306L162.597 98.4422L162.597 98.5783L162.597 98.7144L162.597 98.8505L162.598 98.9865L162.598 99.1225L162.598 99.2585L162.598 99.3944L162.599 99.5302L162.599 99.6661L162.599 99.8018L162.599 99.9375L162.599 100.073L162.6 100.209L162.6 100.344L162.6 100.48L162.6 100.615L162.601 100.751L162.601 100.886L162.601 101.021L162.601 101.157L162.602 101.292L162.602 101.427L162.602 101.562L162.602 101.697L162.603 101.832L162.603 101.967L162.603 102.101L162.603 102.236L162.603 102.371L162.604 102.505L162.604 102.64L162.604 102.774L162.604 102.909L162.605 103.043L162.605 103.177L162.605 103.311L162.605 103.445L162.606 103.579L162.606 103.713L162.606 103.847L162.606 103.98L162.606 104.114L162.607 104.247L162.607 104.381L162.607 104.514L162.607 104.647L162.608 104.781L162.608 104.914L162.608 105.047L162.608 105.179L162.609 105.312L162.609 105.445L162.609 105.577L162.609 105.71L162.609 105.842L162.61 105.974L162.61 106.107L162.61 106.239L162.61 106.37L162.611 106.502L162.611 106.634L162.611 106.766L162.611 106.897L162.611 107.028L162.612 107.16L162.612 107.291L162.612 107.422L162.612 107.553L162.613 107.683L162.613 107.814L162.613 107.945L162.613 108.075L162.613 108.205L162.614 108.335L162.614 108.465L162.614 108.595L162.614 108.725L162.615 108.855L162.615 108.984L162.615 109.114L162.615 109.243L162.616 109.372L162.616 109.501L162.616 109.63L162.616 109.758L162.616 109.887L162.617 110.015L162.617 110.143L162.617 110.271L162.617 110.399L162.617 110.527L162.618 110.655L162.618 110.782L162.618 110.91L162.618 111.037L162.619 111.164L162.619 111.291L162.619 111.417L162.619 111.544L162.619 111.67L162.62 111.797L162.62 111.923L162.62 112.049L162.62 112.174L162.621 112.3L162.621 112.425L162.621 112.551L162.621 112.676L162.621 112.801L162.622 112.925L162.622 113.05L162.622 113.174L162.622 113.298L162.622 113.422L162.623 113.546L162.623 113.67L162.623 113.794L162.623 113.917L162.624 114.04L162.624 114.163L162.624 114.286L162.624 114.408L162.624 114.531L162.625 114.653L162.625 114.775L162.625 114.897L162.625 115.018L162.625 115.14L162.626 115.261L162.626 115.382L162.626 115.503L162.626 115.623L162.626 115.744L162.627 115.864L162.627 115.984L162.627 116.104L162.627 116.224L162.628 116.343L162.628 116.462L162.628 116.581L162.628 116.7L162.628 116.818L162.629 116.937L162.629 117.055L162.629 117.173L162.629 117.291L162.629 117.408L162.63 117.525L162.63 117.642L162.63 117.759L162.63 117.876L162.63 117.992L162.631 118.108L162.631 118.224L162.631 118.34L162.631 118.455L162.631 118.571L162.632 118.686L162.632 118.8L162.632 118.915L162.632 119.029L162.632 119.143L162.633 119.257L162.633 119.371L162.633 119.484L162.633 119.597L162.633 119.71L162.634 119.823L162.634 119.935L162.634 120.047L162.634 120.159L162.634 120.271L162.634 120.382L162.635 120.493L162.635 120.604L162.635 120.715L162.635 120.825L162.635 120.935L162.636 121.045L162.636 121.155L162.636 121.264L162.636 121.373L162.636 121.482L162.637 121.59L162.637 121.699L162.637 121.807L162.637 121.914L162.637 122.022L162.637 122.129L162.638 122.236L162.638 122.343L162.638 122.449L162.638 122.555L162.638 122.661L162.639 122.767L162.639 122.872L162.639 122.977L162.639 123.082L162.639 123.186L162.639 123.29L162.64 123.394L162.64 123.498L162.64 123.601L162.64 123.704L162.64 123.807L162.641 123.909L162.641 124.011L162.641 124.113L162.641 124.214L162.641 124.316L162.641 124.417L162.642 124.517L162.642 124.618L162.642 124.718L162.642 124.817L162.642 124.917L162.642 125.016L162.643 125.115L162.643 125.213L162.643 125.311L162.643 125.409L162.643 125.507L162.643 125.604L162.644 125.701L162.644 125.798L162.644 125.894L162.644 125.99L162.644 126.086L162.644 126.181L162.645 126.276L162.645 126.371L162.645 126.465L162.645 126.559L162.645 126.653L162.645 126.746L162.646 126.839L162.646 126.932L162.646 127.025L162.646 127.117L162.646 127.208L162.646 127.3L162.647 127.391L162.647 127.482L162.647 127.572L162.647 127.662L162.647 127.752L162.647 127.841L162.647 127.93L162.648 128.019L162.648 128.107L162.648 128.195L162.648 128.283L162.648 128.37L162.648 128.457L162.649 128.544L162.649 128.63L162.649 128.716L162.649 128.801L162.649 128.886L162.649 128.971L162.649 129.056L162.65 129.14L162.65 129.223L162.65 129.307L162.65 129.39L162.65 129.472L162.65 129.555L162.65 129.637L162.651 129.718L162.651 129.799L162.651 129.88L162.651 129.96L162.651 130.04L162.651 130.12L162.651 130.199L162.652 130.278L162.652 130.357L162.652 130.435L162.652 130.513L162.652 130.59L162.652 130.667L162.652 130.744L162.652 130.82L162.653 130.896L162.653 130.971L162.653 131.046L162.653 131.121L162.653 131.195L162.653 131.269L162.653 131.342L162.653 131.415L162.654 131.488L162.654 131.56L162.654 131.632L162.654 131.703L162.654 131.774L162.654 131.845L162.654 131.915L162.654 131.985L162.655 132.055L162.655 132.124L162.655 132.192L162.655 132.26L162.655 132.328L162.655 132.396L162.655 132.462L162.655 132.529L162.656 132.595L162.656 132.661L162.656 132.726L162.656 132.791L162.656 132.855L162.656 132.919L162.656 132.983L162.656 133.046L162.656 133.109L162.657 133.171L162.657 133.233L162.657 133.294L162.657 133.355L162.657 133.416L162.657 133.476L162.657 133.535L162.657 133.595L162.657 133.653L162.657 133.712L162.658 133.77L162.658 133.827L162.658 133.884L162.658 133.941L162.658 133.997L162.658 134.053L162.658 134.108L162.658 134.163L162.658 134.217L162.658 134.271L162.658 134.324L162.659 134.377L162.659 134.43L162.659 134.482L162.659 134.533L162.659 134.584L162.659 134.635L162.659 134.685L162.659 134.735L162.659 134.784L162.659 134.833L162.659 134.881L162.66 134.929L162.66 134.977L162.66 135.023L162.66 135.07L162.66 135.116L162.66 135.161L162.66 135.206L162.66 135.251L162.66 135.295L162.66 135.338L162.66 135.382L162.66 135.424L162.66 135.466L162.661 135.508L162.661 135.549L162.661 135.59L162.661 135.63L162.661 135.669L162.661 135.709L162.661 135.747L162.661 135.786L162.661 135.823L162.661 135.86C162.683 148.564 167.584 158.713 174.671 166.539L152.173 166.577C147.179 166.586 146.353 166.545 145.89 166.475C141.556 165.826 138.15 162.432 137.486 158.1C137.415 157.637 137.371 156.811 137.362 151.817L137.324 129.529L137.308 120.431L137.303 117.716L137.302 116.982L137.302 116.792L137.302 116.743L137.302 116.731L137.302 116.728L137.302 116.727Z" fill="#CD3F3F" stroke="#D115A8" stroke-width="30"/>
</svg>
